<svg xmlns="http://www.w3.org/2000/svg"><style>:root svg:not(:target){display:none}</style><svg viewBox="0 0 12 16" fill="none" id="academy-logo"><path d="M11.2151 5.75392L5.97184 2.49957V2.49875L5.97121 2.49916L5.97058 2.49875V2.49957L0.784854 5.75013V1.40658L6.00008 0.830884L11.2151 1.40658V5.75392ZM11.211 6.32987L9.12557 7.62344L5.98451 5.65607L5.97935 6.22863L8.66414 7.9096L8.20107 8.19683L5.98451 6.80853L5.97935 7.3811L7.72892 8.47648L7.31607 8.76717L7.30606 8.77351L5.98451 7.95383L5.97935 8.52631L6.8465 9.06404L5.96315 9.62244L0.796198 6.3886L5.97058 3.1139V3.11448L11.211 6.32987ZM11.2151 11.7713L6 15.0384L0.784854 11.7713V7.02542L5.97763 10.2796L5.98631 10.8693L2.42396 8.63702L2.41871 9.20959L5.99523 11.4728L6.00407 12.0782L2.42873 9.83883L2.42356 10.4113L6 12.6745L9.60624 10.4026V7.95712L11.2151 6.94552V11.7713ZM5.99984 -3.17891e-07L0 0.662267V12.2411L6 16L12 12.2411V0.662267L5.99984 -3.17891e-07Z" fill="#BDBDBD"></path></svg><svg viewBox="0 0 16 16" fill="none" id="account"><path fill-rule="evenodd" clip-rule="evenodd" d="M10.6667 4C10.6667 5.47276 9.47276 6.66667 8 6.66667C6.52724 6.66667 5.33333 5.47276 5.33333 4C5.33333 2.52724 6.52724 1.33333 8 1.33333C9.47276 1.33333 10.6667 2.52724 10.6667 4ZM12 4C12 6.20914 10.2091 8 8 8C5.79086 8 4 6.20914 4 4C4 1.79086 5.79086 0 8 0C10.2091 0 12 1.79086 12 4ZM3.19673 12.3102C4.43611 11.2774 6.1613 10.6667 8 10.6667C9.8387 10.6667 11.5639 11.2774 12.8033 12.3102C14.0354 13.337 14.6667 14.6719 14.6667 16H16C16 14.2321 15.1573 12.5363 13.6569 11.286C12.1566 10.0357 10.1218 9.33333 8 9.33333C5.87821 9.33333 3.8434 10.0357 2.34315 11.286C0.842686 12.5363 0 14.2321 0 16L1.33333 16C1.33333 14.6719 1.96465 13.337 3.19673 12.3102Z" fill="#333333"></path></svg><svg viewBox="0 0 13 16" fill="none" id="address"><path fill-rule="evenodd" clip-rule="evenodd" d="M11.8 6.5C11.8 8.83027 10.4332 10.9174 8.8884 12.5109C8.13169 13.2915 7.37106 13.9131 6.79878 14.3393C6.6918 14.419 6.59177 14.4916 6.5 14.5569C6.40823 14.4916 6.3082 14.419 6.20122 14.3393C5.62894 13.9131 4.86831 13.2915 4.1116 12.5109C2.56678 10.9174 1.2 8.83027 1.2 6.5C1.2 3.57289 3.57289 1.2 6.5 1.2C9.42711 1.2 11.8 3.57289 11.8 6.5ZM13 6.5C13 12.0899 6.5 16 6.5 16C6.5 16 0 12.0899 0 6.5C0 2.91015 2.91015 0 6.5 0C10.0899 0 13 2.91015 13 6.5ZM8.8 6.5C8.8 7.77026 7.77026 8.8 6.5 8.8C5.22974 8.8 4.2 7.77026 4.2 6.5C4.2 5.22974 5.22974 4.2 6.5 4.2C7.77026 4.2 8.8 5.22974 8.8 6.5ZM10 6.5C10 8.433 8.433 10 6.5 10C4.567 10 3 8.433 3 6.5C3 4.567 4.567 3 6.5 3C8.433 3 10 4.567 10 6.5Z" fill="#7859CF"></path></svg><svg viewBox="0 0 6 10" fill="none" id="arrow-back"><path fill-rule="evenodd" clip-rule="evenodd" d="M4.80847 -5.20835e-08L6 1.23899L2.38306 5L6 8.76101L4.80847 10L-2.18557e-07 5L4.80847 -5.20835e-08Z" fill="#7859CF"></path></svg><svg viewBox="0 0 6 10" fill="none" id="arrow-next"><path fill-rule="evenodd" clip-rule="evenodd" d="M1.19153 -5.20835e-08L5.41581e-08 1.23899L3.61694 5L3.82956e-07 8.76101L1.19153 10L6 5L1.19153 -5.20835e-08Z" fill="#7859CF"></path></svg><svg viewBox="0 0 16 16" fill="none" id="basket"><path fill-rule="evenodd" clip-rule="evenodd" d="M5.66091 3.87546L5.89351 6.66667H10.1065L10.3391 3.87546C10.4531 2.50699 9.37321 1.33333 8 1.33333C6.62679 1.33333 5.54687 2.50699 5.66091 3.87546ZM11.4444 6.66667L11.6678 3.98618C11.8466 1.84036 10.1533 0 8 0C5.84674 0 4.15336 1.84036 4.33218 3.98618L4.55556 6.66667H1.34687H0L0.190476 8L1.00626 13.7105C1.19393 15.0242 2.31905 16 3.64612 16H12.3539C13.6809 16 14.8061 15.0242 14.9937 13.7105L15.8095 8L16 6.66667H14.6531H11.4444ZM11.3333 8H11.2801L11.0579 10.6667H14.0817L14.4627 8H11.3333ZM9.94213 8H6.05787L6.28009 10.6667H9.71991L9.94213 8ZM4.71991 8H4.66667H1.53735L1.9183 10.6667H4.94213L4.71991 8ZM6.61342 14.6667L6.3912 12H9.6088L9.38658 14.6667H6.61342ZM10.9468 12L10.7245 14.6667H12.3539C13.0174 14.6667 13.58 14.1788 13.6738 13.5219L13.8912 12H10.9468ZM5.05324 12L5.27547 14.6667H3.64612C2.98259 14.6667 2.42003 14.1788 2.32619 13.5219L2.10877 12H5.05324Z" fill="#333333"></path></svg><svg viewBox="0 0 20 16" fill="none" id="busket"><path fill-rule="evenodd" clip-rule="evenodd" d="M13.6738 13.5219L13.6769 13.5H15.0238L14.9937 13.7105C14.8061 15.0242 13.6809 16 12.3539 16H3.64612C2.31905 16 1.19393 15.0242 1.00626 13.7105L0.190476 8L0 6.66667H1.34687H4.55556L4.33218 3.98618C4.15336 1.84036 5.84674 0 8 0C9.81376 0 11.3012 1.30578 11.6183 3H10.2473C9.95698 2.04197 9.06703 1.33333 8 1.33333C6.62679 1.33333 5.54687 2.50699 5.66091 3.87546L5.89351 6.66667H9.5V8H6.05787L6.28009 10.6667H9.71991L9.7338 10.5H11.0718L11.0579 10.6667H12.5V12H10.9468L10.7245 14.6667H12.3539C13.0174 14.6667 13.58 14.1788 13.6738 13.5219ZM4.71991 8H4.66667H1.53735L1.9183 10.6667H4.94213L4.71991 8ZM6.61342 14.6667L6.3912 12H9.6088L9.38658 14.6667H6.61342ZM5.05324 12L5.27547 14.6667H3.64612C2.98259 14.6667 2.42003 14.1788 2.32619 13.5219L2.10877 12H5.05324ZM15.8 10V7.2H13V5.8H15.8V3H17.2V5.8H20V7.2H17.2V10H15.8Z" fill="white"></path></svg><svg viewBox="0 0 20 20" fill="none" id="button-next"><path fill-rule="evenodd" clip-rule="evenodd" d="M6.28339 0L5 1.32082L13.4332 10L5 18.6792L6.28339 20L16 10L6.28339 0Z" fill="#7859CF"></path></svg><svg viewBox="0 0 20 20" fill="none" id="button-prev"><path fill-rule="evenodd" clip-rule="evenodd" d="M13.7166 0L15 1.32082L6.56677 10L15 18.6792L13.7166 20L4 10L13.7166 0Z" fill="#7859CF"></path></svg><svg viewBox="0 0 16 16" fill="none" id="ellipse-active"><circle cx="8" cy="8" r="8" fill="#7859CF"></circle></svg><svg viewBox="0 0 16 16" fill="none" id="ellipse-hover"><circle cx="8" cy="8" r="8" fill="#7859CF" fill-opacity="0.25"></circle></svg><svg viewBox="0 0 46 56" fill="none" id="icon-eco"><path fill-rule="evenodd" clip-rule="evenodd" d="M38.7068 22.1225C39.4764 15.5574 40.2041 9.34979 45.9997 4C19.5072 3.99988 11.8468 12.128 7.9998 17.9999C-0.541753 31.0373 7.08506 43.6704 8.7106 46.0864C7.76149 47.9699 6.8453 49.8228 5.96853 51.596C5.28756 52.9732 4.63037 54.3023 4 55.5603L4.88103 55.9999C5.51647 54.7318 6.17882 53.3919 6.86491 52.0041C7.71305 50.2884 8.59746 48.4993 9.51217 46.6817C12.1065 47.5486 23.9646 50.8651 31.5 41.9999C37.1568 35.3449 37.9519 28.5617 38.7068 22.1225Z" fill="#F0EBFF"></path><path fill-rule="evenodd" clip-rule="evenodd" d="M5.23221 41.055C9.18989 33.2582 13.686 25.0948 18.2668 19.9999L19 20.6562C14.4314 25.7376 9.93043 33.9532 5.96782 41.779C6.34578 41.9019 6.88834 42.0652 7.56144 42.2326C8.95668 42.5795 10.8987 42.9402 13.0898 43.0003C17.4744 43.1204 22.753 42.0406 26.7381 37.3522C32.1982 30.9285 32.9631 24.4063 33.7206 17.9463L33.7357 17.8172C34.4173 12.0063 35.12 6.18297 39.6108 1.02289C27.8214 1.2525 20.1299 3.18456 14.9438 5.69784C9.44336 8.36348 6.69156 11.7161 4.83626 14.5479C0.283102 21.4976 0.51823 28.3097 1.90266 33.4262C2.59642 35.9902 3.57807 38.1203 4.38638 39.6085C4.70612 40.1972 4.99777 40.6837 5.23221 41.055ZM4.7106 42.0864C3.08506 39.6704 -4.54175 27.0373 3.9998 13.9999C7.77584 8.23634 15.2259 0.299055 40.5524 0.00822987C41.0285 0.00276494 41.5109 -2.58931e-06 41.9997 1.81779e-09C41.6406 0.331444 41.301 0.666183 40.9796 1.0041C36.1138 6.12034 35.4287 11.9641 34.7068 18.1225C33.952 24.5617 33.1568 31.3449 27.5 37.9999C19.9646 46.8651 8.10646 43.5486 5.51217 42.6817C4.59746 44.4993 3.71305 46.2884 2.86491 48.0041C2.17882 49.3919 1.51647 50.7318 0.881027 51.9999L0 51.5603C0.630371 50.3023 1.28756 48.9732 1.96853 47.596C2.8453 45.8228 3.76149 43.9699 4.7106 42.0864Z" fill="#7859CF"></path></svg><svg style="shape-rendering:geometricPrecision; text-rendering:geometricPrecision; image-rendering:optimizeQuality; fill-rule:evenodd; clip-rule:evenodd" id="icon-enegry" viewBox="0 0 52 56"><g><path style="opacity:0.569" fill="#795acf" d="M 37.5,-0.5 C 37.8333,-0.5 38.1667,-0.5 38.5,-0.5C 37.4242,2.6484 36.0909,5.6484 34.5,8.5C 33.8333,8.5 33.5,8.83333 33.5,9.5C 31.1542,12.8708 28.8208,16.2041 26.5,19.5C 26.8333,18.1667 27.1667,16.8333 27.5,15.5C 29.5237,13.1277 30.6904,10.461 31,7.5C 23.5905,13.4542 16.0905,19.2875 8.5,25C 9.24382,26.0386 10.2438,26.5386 11.5,26.5C 11.1667,27.1667 10.8333,27.8333 10.5,28.5C 10.1667,28.5 9.83333,28.5 9.5,28.5C 7.84152,27.8186 6.17486,26.9853 4.5,26C 15.399,16.923 26.399,8.08971 37.5,-0.5 Z"></path></g><g><path style="opacity:0.889" fill="#eee9fe" d="M 33.5,21.5 C 30.8478,21.5905 28.5145,20.9238 26.5,19.5C 28.8208,16.2041 31.1542,12.8708 33.5,9.5C 34.1667,9.5 34.5,9.16667 34.5,8.5C 37.1004,7.08122 39.6004,5.41455 42,3.5C 42.1667,3.83333 42.3333,4.16667 42.5,4.5C 39.2199,10.0621 36.2199,15.7288 33.5,21.5 Z"></path></g><g><path style="opacity:0.947" fill="#ede8fe" d="M 27.5,15.5 C 27.1667,16.8333 26.8333,18.1667 26.5,19.5C 25.9569,19.56 25.6236,19.8933 25.5,20.5C 27.5939,21.5176 29.5939,22.5176 31.5,23.5C 32.209,24.404 33.209,24.7373 34.5,24.5C 35.209,25.404 36.209,25.7373 37.5,25.5C 37.9382,25.4346 38.2716,25.6012 38.5,26C 36.9586,27.3712 35.6253,28.8712 34.5,30.5C 32.2512,31.0798 30.5846,32.4131 29.5,34.5C 27.5956,34.7376 26.2623,35.7376 25.5,37.5C 23.9382,37.7329 22.6049,38.3995 21.5,39.5C 21.7031,37.9557 22.3698,36.6223 23.5,35.5C 22.675,34.6143 21.675,34.281 20.5,34.5C 20.5,33.5 20.5,32.5 20.5,31.5C 21.8847,30.6977 21.718,30.0311 20,29.5C 17.1807,29.0179 14.6807,28.0179 12.5,26.5C 17.2139,22.4542 22.2139,18.7875 27.5,15.5 Z"></path></g><g><path style="opacity:0.568" fill="#8264d2" d="M 26.5,19.5 C 28.5145,20.9238 30.8478,21.5905 33.5,21.5C 36.0417,22.6244 38.7084,23.4577 41.5,24C 42.5981,24.7697 42.5981,25.603 41.5,26.5C 39.1667,27.8333 36.8333,29.1667 34.5,30.5C 35.6253,28.8712 36.9586,27.3712 38.5,26C 38.2716,25.6012 37.9382,25.4346 37.5,25.5C 36.791,24.596 35.791,24.2627 34.5,24.5C 33.791,23.596 32.791,23.2627 31.5,23.5C 29.5939,22.5176 27.5939,21.5176 25.5,20.5C 25.6236,19.8933 25.9569,19.56 26.5,19.5 Z"></path></g><g><path style="opacity:0.657" fill="#977ddb" d="M 11.5,26.5 C 11.8333,26.5 12.1667,26.5 12.5,26.5C 14.6807,28.0179 17.1807,29.0179 20,29.5C 21.718,30.0311 21.8847,30.6977 20.5,31.5C 17.4498,29.8993 14.1165,28.8993 10.5,28.5C 10.8333,27.8333 11.1667,27.1667 11.5,26.5 Z"></path></g><g><path style="opacity:0.904" fill="#eee9fe" d="M 41.5,26.5 C 43.1585,27.1814 44.8251,28.0147 46.5,29C 35.601,38.077 24.601,46.9103 13.5,55.5C 13.1667,55.5 12.8333,55.5 12.5,55.5C 13.5758,52.3516 14.9091,49.3516 16.5,46.5C 17.1667,46.5 17.5,46.1667 17.5,45.5C 19.8605,42.4728 22.5271,39.8062 25.5,37.5C 27.4044,37.2624 28.7377,36.2624 29.5,34.5C 31.7488,33.9202 33.4154,32.5869 34.5,30.5C 36.8333,29.1667 39.1667,27.8333 41.5,26.5 Z"></path></g><g><path style="opacity:0.854" fill="#ede7fe" d="M 9.5,28.5 C 9.83333,28.5 10.1667,28.5 10.5,28.5C 14.1165,28.8993 17.4498,29.8993 20.5,31.5C 19.5,32.1667 18.5,32.8333 17.5,33.5C 14.9583,32.3756 12.2916,31.5423 9.5,31C 8.40191,30.2303 8.40191,29.397 9.5,28.5 Z"></path></g><g><path style="opacity:1" fill="#a088df" d="M 34.5,30.5 C 33.4154,32.5869 31.7488,33.9202 29.5,34.5C 30.5846,32.4131 32.2512,31.0798 34.5,30.5 Z"></path></g><g><path style="opacity:1" fill="#9f88de" d="M 29.5,34.5 C 28.7377,36.2624 27.4044,37.2624 25.5,37.5C 26.2623,35.7376 27.5956,34.7376 29.5,34.5 Z"></path></g><g><path style="opacity:0.565" fill="#7a5bd0" d="M 20.5,31.5 C 20.5,32.5 20.5,33.5 20.5,34.5C 17.9182,36.9968 16.4182,39.9968 16,43.5C 17.9917,42.3353 19.825,41.002 21.5,39.5C 22.6049,38.3995 23.9382,37.7329 25.5,37.5C 22.5271,39.8062 19.8605,42.4728 17.5,45.5C 16.8333,45.5 16.5,45.8333 16.5,46.5C 13.8996,47.9188 11.3996,49.5854 9,51.5C 8.83333,51.1667 8.66667,50.8333 8.5,50.5C 11.7801,44.9379 14.7801,39.2712 17.5,33.5C 18.5,32.8333 19.5,32.1667 20.5,31.5 Z"></path></g></svg><svg viewBox="0 0 52 56" fill="none" id="icon-fit"><path d="M4 4H52L48 48L28 56L8 48L4 4Z" fill="#F0EBFF"></path><path fill-rule="evenodd" clip-rule="evenodd" d="M1.00412 0H0L0.0909091 1L4 44L24 52L44 44L47.9091 1L48 0H46.9959H1.00412ZM1.09503 1L1.45867 5H5H5.50198H6.00396H6.9H10.7H14.5H18.3H22.1H25.9H29.7H33.5H37.3H41.1H41.996H42.498H43H46.5413L46.905 1H1.09503ZM41.9069 6H41.1H37.3H33.5H29.7H25.9H22.1H18.3H14.5H10.7H6.9H6.09307L6.19397 7.1324L5.69594 7.17678L5.19792 7.22115L5.08911 6H1.54958L4.94041 43.2991L24 50.923L43.0596 43.2991L46.4504 6H42.9109L42.8021 7.22115L42.3041 7.17678L41.806 7.1324L41.9069 6ZM6.09178 11.6191L5.59375 11.6635L5.98958 16.1058L6.48761 16.0614L6.98564 16.017L6.5898 11.5747L6.09178 11.6191ZM6.88344 20.5037L6.38542 20.5481L6.78125 24.9904L7.27928 24.946L7.7773 24.9016L7.38147 20.4593L6.88344 20.5037ZM7.67511 29.3883L7.17708 29.4327L7.57292 33.875L8.07094 33.8306L8.56897 33.7862L8.17314 29.3439L7.67511 29.3883ZM8.46678 38.2729L7.96875 38.3173L8.16667 40.5385L10.1458 41.3462L10.3348 40.8832L10.5237 40.4203L9.10864 39.8428L8.9648 38.2286L8.46678 38.2729ZM14.2931 42.4986L14.1042 42.9615L18.0625 44.5769L18.2514 44.114L18.4403 43.6511L14.482 42.0357L14.2931 42.4986ZM22.2098 45.7294L22.0208 46.1923L24 47L25.9792 46.1923L25.7902 45.7294L25.6013 45.2664L24 45.9199L22.3987 45.2664L22.2098 45.7294ZM29.7486 44.114L29.9375 44.5769L33.8958 42.9615L33.7069 42.4986L33.518 42.0357L29.5597 43.6511L29.7486 44.114ZM37.6652 40.8832L37.8542 41.3462L39.8333 40.5385L40.0313 38.3173L39.5332 38.2729L39.0352 38.2286L38.8914 39.8428L37.4763 40.4203L37.6652 40.8832ZM39.9291 33.8306L40.4271 33.875L40.8229 29.4327L40.3249 29.3883L39.8269 29.3439L39.431 33.7862L39.9291 33.8306ZM40.7207 24.946L41.2188 24.9904L41.6146 20.5481L41.1166 20.5037L40.6185 20.4593L40.2227 24.9016L40.7207 24.946ZM41.5124 16.0614L42.0104 16.1058L42.4062 11.6635L41.9082 11.6191L41.4102 11.5747L41.0144 16.017L41.5124 16.0614Z" fill="#7859CF"></path></svg><svg viewBox="0 0 52 56" fill="none" id="icon-speed"><path fill-rule="evenodd" clip-rule="evenodd" d="M24 4H32V7H29V10.0213C32.8152 10.1846 36.3896 11.2772 39.5027 13.0786C41.354 11.1476 45.7551 13.2459 44.2635 16.7365C44.2309 16.704 44.1983 16.6716 44.1656 16.6393C48.3853 20.8089 51 26.5991 51 33C51 45.7025 40.7025 56 28 56C15.2975 56 5 45.7025 5 33C5 26.3297 7.83949 20.3226 12.3757 16.1215C12.1588 16.3222 11.9457 16.5272 11.7365 16.7364C9.70719 13.7075 14.3199 10.5817 16.4975 13.0784C19.6105 11.2771 23.1849 10.1846 27 10.0213V7H24V4Z" fill="#F0EBFF"></path><path fill-rule="evenodd" clip-rule="evenodd" d="M27 1H21V2L23 2L25 2H27V1ZM25 3H27H28V2V1V0H27H21H20V1V2V3H21H23V6.02135C19.5463 6.1691 16.2898 7.07848 13.3944 8.58582L13.2544 8.42496C11.7163 6.6569 9.39521 6.98255 7.95484 8.02395C7.21517 8.55874 6.60253 9.33813 6.35204 10.2775C6.09438 11.2438 6.24251 12.3031 6.90574 13.293L7.02865 13.4765C3.28444 17.5676 1 23.017 1 29C1 41.7025 11.2975 52 24 52C36.7025 52 47 41.7025 47 29C47 23.0401 44.7331 17.6096 41.0145 13.5238L41.183 13.1295C41.6454 12.0474 41.6748 11.0021 41.3518 10.087C41.0339 9.1862 40.4018 8.48773 39.6665 8.02632C38.2591 7.14319 36.1326 6.97177 34.777 8.39054L34.5955 8.58053C31.7025 7.07636 28.4497 6.16892 25 6.02135V3ZM24 7C20.1406 7 16.5133 7.99379 13.36 9.73944L13 9.94732C11.5856 10.7639 10.2674 11.735 9.06924 12.8421C4.72198 16.8612 2 22.6127 2 29C2 41.1503 11.8497 51 24 51C36.1503 51 46 41.1503 46 29C46 22.9249 43.5376 17.4248 39.5563 13.4436C39.4319 13.3192 39.306 13.1963 39.1787 13.0749C37.9153 11.8707 36.5126 10.8207 35 9.94741L34.6357 9.7371C31.4835 7.99291 27.8577 7 24 7ZM12.4975 9.07845C11.0109 9.93867 9.62944 10.9605 8.37728 12.12C8.15986 12.3212 7.94622 12.5267 7.73652 12.7364C7.51811 12.4104 7.37664 12.0833 7.30079 11.7622C6.75443 9.44925 9.61277 7.44804 11.6466 8.42332C11.9539 8.57068 12.2424 8.78599 12.4975 9.07845ZM35.5027 9.07856C37.0672 9.98386 38.5152 11.0682 39.8186 12.3035C39.9688 12.4458 40.1171 12.5902 40.2635 12.7365C40.43 12.3468 40.523 11.9745 40.5544 11.6232C40.7632 9.28719 38.2441 7.88062 36.4507 8.48214C36.0978 8.60048 35.7731 8.79655 35.5027 9.07856ZM24 31C25.1046 31 26 30.1046 26 29C26 28.2049 25.536 27.5182 24.8641 27.1958L23.9501 27.0006C22.8686 27.0271 22 27.9121 22 29C22 30.1046 22.8954 31 24 31ZM23.3638 26.0676L22.0176 21.1316L21.9778 20.9855L22.0257 20.8419L23.5257 16.3419L24 14.9189L24.4743 16.3419L25.9743 20.8419L26.0222 20.9855L25.9824 21.1316L24.6362 26.0676C24.7657 26.0956 24.8921 26.1319 25.0148 26.176L32.5642 12.7549L33.4358 13.2451L25.8861 26.6669C26.5656 27.2169 27 28.0577 27 29C27 30.6569 25.6569 32 24 32C22.3431 32 21 30.6569 21 29C21 27.5614 22.0125 26.3594 23.3638 26.0676ZM23.0222 21.0145L24 24.5997L24.9778 21.0145L24 18.0811L23.0222 21.0145Z" fill="#7859CF"></path></svg><svg viewBox="0 0 12 12" fill="none" id="nav-closed"><path fill-rule="evenodd" clip-rule="evenodd" d="M5.02548 6L0 0.974524L0.974524 0L6 5.02548L11.0255 0L12 0.974524L6.97452 6L12 11.0255L11.0255 12L6 6.97452L0.974524 12L0 11.0255L5.02548 6Z" fill="#333333"></path></svg><svg viewBox="0 0 16 12" fill="none" id="nav-opened"><path fill-rule="evenodd" clip-rule="evenodd" d="M0 0H16V1.5H0V0ZM0 5.25H16V6.75H0V5.25ZM16 10.5H0V12H16V10.5Z" fill="#333333"></path></svg><svg viewBox="0 0 20 20" fill="none" id="ok"><path fill-rule="evenodd" clip-rule="evenodd" d="M1.4 1.4C3.33786e-06 2.812 3.35195e-06 5.074 3.35195e-06 9.6V10.4L1.66545e-06 10.5136C-9.77702e-05 14.97 -0.00014782 17.2117 1.4 18.6C2.812 20 5.074 20 9.6 20H10.4H10.5131C14.9698 20.0001 17.2117 20.0001 18.6 18.6C20 17.188 20 14.926 20 10.4V9.6V9.48685C20.0001 5.03015 20.0001 2.7883 18.6 1.4C17.188 3.33786e-06 14.926 3.35195e-06 10.4 3.35195e-06H9.6L9.48639 1.66545e-06C5.03 -9.77702e-05 2.78825 -0.00014782 1.4 1.4ZM10.0194 10.1972C11.6876 10.1972 13.0477 8.83717 13.0477 7.16889C13.0477 5.50061 11.6876 4.14061 10.0194 4.14061C8.33296 4.14061 6.97295 5.50061 6.97295 7.16889C6.97295 8.83717 8.33296 10.1972 10.0194 10.1972ZM10.0194 5.91768C10.7084 5.91768 11.2706 6.47982 11.2706 7.16889C11.2706 7.85796 10.7084 8.4201 10.0194 8.4201C9.3303 8.4201 8.76816 7.85796 8.76816 7.16889C8.75003 6.47982 9.31216 5.91768 10.0194 5.91768ZM11.2343 12.6815C11.8509 12.5364 12.4493 12.3007 12.9933 11.9561C13.4103 11.7023 13.5372 11.1401 13.2653 10.7231C13.0114 10.306 12.4493 10.1791 12.0322 10.4511C10.7991 11.2308 9.18524 11.2308 7.95216 10.4511C7.53509 10.1972 6.99109 10.306 6.71909 10.7231C6.48336 11.1401 6.61029 11.6841 7.02736 11.938C7.57137 12.2825 8.16977 12.5183 8.7863 12.6634L7.0999 14.3498C6.75536 14.6943 6.75536 15.2565 7.0999 15.601C7.28123 15.7823 7.49883 15.8548 7.73456 15.8548C7.9703 15.8548 8.1879 15.7641 8.36923 15.601L10.0375 13.9327L11.7058 15.601C12.0503 15.9455 12.6124 15.9455 12.957 15.601C13.3015 15.2565 13.3015 14.6943 12.957 14.3498L11.2343 12.6815Z" fill="#BDBDBD"></path></svg><svg viewBox="0 0 13 16" fill="none" id="phone"><path fill-rule="evenodd" clip-rule="evenodd" d="M1.47771 1.49035C0.407036 2.09016 -0.173009 3.23613 0.0457595 4.31941L0.404071 6.09367C1.3302 9.21701 2.90461 11.863 5.22921 14.2029L6.63362 15.3911C7.49109 16.1166 8.80393 16.2022 9.8746 15.6024L12.1043 14.3533C12.9766 13.8646 13.2662 12.8186 12.7298 12.0941L10.7951 9.48096C10.2793 8.7842 9.20705 8.66949 8.42947 9.22787L7.05383 10.2157C5.82614 9.33632 5.0461 8.02537 4.87507 6.55403L6.44457 5.89198C7.33172 5.51776 7.76545 4.55939 7.4015 3.77755L6.03652 0.845267C5.65806 0.0322596 4.57968 -0.247395 3.7074 0.241264L1.47771 1.49035ZM1.2824 4.01819C1.16306 3.42725 1.47948 2.80211 2.06354 2.47492L4.29323 1.22582C4.5113 1.10366 4.78089 1.17357 4.87551 1.37683L6.24049 4.30911C6.33147 4.50457 6.22304 4.74416 6.00126 4.83771L3.57088 5.8629L3.58692 6.27871C3.66894 8.40504 4.79869 10.3037 6.65548 11.4358L7.01858 11.6572L9.14878 10.1275C9.34317 9.98792 9.61123 10.0166 9.74019 10.1908L11.6748 12.8039C11.8089 12.9851 11.7365 13.2466 11.5185 13.3687L9.28877 14.6178C8.70471 14.945 7.98854 14.8983 7.52079 14.5026L6.11637 13.3144C4.3893 11.6193 2.29008 8.09128 1.64071 5.79245L1.2824 4.01819Z" fill="#7859CF"></path></svg><svg viewBox="0 0 22 22" fill="none" id="pinterest"><path d="M11 8.96454e-05C4.92488 8.96454e-05 0 4.92497 0 11C0 15.6602 2.8994 19.644 6.99129 21.2467C6.89517 20.3764 6.80825 19.0379 7.02943 18.0878C7.22934 17.2293 8.31931 12.6201 8.31931 12.6201C8.31931 12.6201 7.99028 11.9612 7.99028 10.987C7.99028 9.45743 8.87682 8.31552 9.98068 8.31552C10.9192 8.31552 11.3724 9.0201 11.3724 9.86499C11.3724 10.8088 10.7716 12.2199 10.4615 13.5275C10.2023 14.6223 11.0105 15.5152 12.0904 15.5152C14.0454 15.5152 15.5483 13.4537 15.5483 10.4781C15.5483 7.84429 13.6558 6.00285 10.9535 6.00285C7.82365 6.00285 5.98653 8.35042 5.98653 10.7765C5.98653 11.7219 6.35073 12.7357 6.80518 13.2868C6.89508 13.3958 6.90824 13.4912 6.88146 13.6023C6.79797 13.9498 6.6124 14.6969 6.57597 14.8498C6.528 15.0512 6.41655 15.0939 6.20808 14.9969C4.83426 14.3574 3.9753 12.3488 3.9753 10.7355C3.9753 7.26559 6.49644 4.07891 11.2434 4.07891C15.0593 4.07891 18.0247 6.79806 18.0247 10.432C18.0247 14.223 15.6344 17.2739 12.3167 17.2739C11.202 17.2739 10.1542 16.6949 9.79547 16.0109C9.79547 16.0109 9.2439 18.1111 9.11018 18.6258C8.86186 19.5812 8.19145 20.7788 7.74303 21.5095C8.77223 21.8281 9.86598 22 11 22C17.0751 22 22 17.0751 22 11C22 4.92497 17.0751 8.96454e-05 11 8.96454e-05Z" fill="#BDBDBD"></path></svg><svg viewBox="0 0 10 6" fill="none" id="select"><path fill-rule="evenodd" clip-rule="evenodd" d="M0 1.19153L1.23899 0L5 3.61694L8.76101 0L10 1.19153L5 6L0 1.19153Z" fill="#7859CF"></path></svg><svg viewBox="0 0 62 4" fill="none" id="slider-dot"><rect width="62" height="4" fill="#7859CF"></rect></svg><svg viewBox="0 0 20 20" fill="none" id="vk"><path fill-rule="evenodd" clip-rule="evenodd" d="M1.40589 1.40589C0 2.81177 0 5.0745 0 9.6V10.4C0 14.9255 0 17.1882 1.40589 18.5941C2.81177 20 5.0745 20 9.6 20H10.4C14.9255 20 17.1882 20 18.5941 18.5941C20 17.1882 20 14.9255 20 10.4V9.6C20 5.0745 20 2.81177 18.5941 1.40589C17.1882 0 14.9255 0 10.4 0H9.6C5.0745 0 2.81177 0 1.40589 1.40589ZM3.37505 6.08337C3.48338 11.2834 6.08337 14.4084 10.6417 14.4084H10.9001V11.4334C12.5751 11.6 13.8417 12.825 14.35 14.4084H16.7167C16.0667 12.0417 14.3583 10.7334 13.2916 10.2334C14.3583 9.61671 15.8583 8.11671 16.2166 6.08337H14.0666C13.5999 7.73337 12.2168 9.23337 10.9001 9.37504V6.08337H8.75V11.85C7.41667 11.5167 5.73338 9.90004 5.65837 6.08337H3.37505Z" fill="#BDBDBD"></path></svg></svg>