<svg xmlns="http://www.w3.org/2000/svg"><style>:root svg:not(:target){display:none}</style><svg viewBox="0 0 20 20" fill="none" id="button-next"><path fill-rule="evenodd" clip-rule="evenodd" d="M6.28339 0L5 1.32082L13.4332 10L5 18.6792L6.28339 20L16 10L6.28339 0Z" fill="#7859CF"></path></svg><svg viewBox="0 0 20 20" fill="none" id="button-prev"><path fill-rule="evenodd" clip-rule="evenodd" d="M13.7166 0L15 1.32082L6.56677 10L15 18.6792L13.7166 20L4 10L13.7166 0Z" fill="#7859CF"></path></svg><svg viewBox="0 0 46 56" fill="none" id="icon-eco"><path fill-rule="evenodd" clip-rule="evenodd" d="M38.7068 22.1225C39.4764 15.5574 40.2041 9.34979 45.9997 4C19.5072 3.99988 11.8468 12.128 7.9998 17.9999C-0.541753 31.0373 7.08506 43.6704 8.7106 46.0864C7.76149 47.9699 6.8453 49.8228 5.96853 51.596C5.28756 52.9732 4.63037 54.3023 4 55.5603L4.88103 55.9999C5.51647 54.7318 6.17882 53.3919 6.86491 52.0041C7.71305 50.2884 8.59746 48.4993 9.51217 46.6817C12.1065 47.5486 23.9646 50.8651 31.5 41.9999C37.1568 35.3449 37.9519 28.5617 38.7068 22.1225Z" fill="#F0EBFF"></path><path fill-rule="evenodd" clip-rule="evenodd" d="M5.23221 41.055C9.18989 33.2582 13.686 25.0948 18.2668 19.9999L19 20.6562C14.4314 25.7376 9.93043 33.9532 5.96782 41.779C6.34578 41.9019 6.88834 42.0652 7.56144 42.2326C8.95668 42.5795 10.8987 42.9402 13.0898 43.0003C17.4744 43.1204 22.753 42.0406 26.7381 37.3522C32.1982 30.9285 32.9631 24.4063 33.7206 17.9463L33.7357 17.8172C34.4173 12.0063 35.12 6.18297 39.6108 1.02289C27.8214 1.2525 20.1299 3.18456 14.9438 5.69784C9.44336 8.36348 6.69156 11.7161 4.83626 14.5479C0.283102 21.4976 0.51823 28.3097 1.90266 33.4262C2.59642 35.9902 3.57807 38.1203 4.38638 39.6085C4.70612 40.1972 4.99777 40.6837 5.23221 41.055ZM4.7106 42.0864C3.08506 39.6704 -4.54175 27.0373 3.9998 13.9999C7.77584 8.23634 15.2259 0.299055 40.5524 0.00822987C41.0285 0.00276494 41.5109 -2.58931e-06 41.9997 1.81779e-09C41.6406 0.331444 41.301 0.666183 40.9796 1.0041C36.1138 6.12034 35.4287 11.9641 34.7068 18.1225C33.952 24.5617 33.1568 31.3449 27.5 37.9999C19.9646 46.8651 8.10646 43.5486 5.51217 42.6817C4.59746 44.4993 3.71305 46.2884 2.86491 48.0041C2.17882 49.3919 1.51647 50.7318 0.881027 51.9999L0 51.5603C0.630371 50.3023 1.28756 48.9732 1.96853 47.596C2.8453 45.8228 3.76149 43.9699 4.7106 42.0864Z" fill="#7859CF"></path></svg><svg style="shape-rendering:geometricPrecision; text-rendering:geometricPrecision; image-rendering:optimizeQuality; fill-rule:evenodd; clip-rule:evenodd" id="icon-enegry" viewBox="0 0 52 56"><g><path style="opacity:0.569" fill="#795acf" d="M 37.5,-0.5 C 37.8333,-0.5 38.1667,-0.5 38.5,-0.5C 37.4242,2.6484 36.0909,5.6484 34.5,8.5C 33.8333,8.5 33.5,8.83333 33.5,9.5C 31.1542,12.8708 28.8208,16.2041 26.5,19.5C 26.8333,18.1667 27.1667,16.8333 27.5,15.5C 29.5237,13.1277 30.6904,10.461 31,7.5C 23.5905,13.4542 16.0905,19.2875 8.5,25C 9.24382,26.0386 10.2438,26.5386 11.5,26.5C 11.1667,27.1667 10.8333,27.8333 10.5,28.5C 10.1667,28.5 9.83333,28.5 9.5,28.5C 7.84152,27.8186 6.17486,26.9853 4.5,26C 15.399,16.923 26.399,8.08971 37.5,-0.5 Z"></path></g><g><path style="opacity:0.889" fill="#eee9fe" d="M 33.5,21.5 C 30.8478,21.5905 28.5145,20.9238 26.5,19.5C 28.8208,16.2041 31.1542,12.8708 33.5,9.5C 34.1667,9.5 34.5,9.16667 34.5,8.5C 37.1004,7.08122 39.6004,5.41455 42,3.5C 42.1667,3.83333 42.3333,4.16667 42.5,4.5C 39.2199,10.0621 36.2199,15.7288 33.5,21.5 Z"></path></g><g><path style="opacity:0.947" fill="#ede8fe" d="M 27.5,15.5 C 27.1667,16.8333 26.8333,18.1667 26.5,19.5C 25.9569,19.56 25.6236,19.8933 25.5,20.5C 27.5939,21.5176 29.5939,22.5176 31.5,23.5C 32.209,24.404 33.209,24.7373 34.5,24.5C 35.209,25.404 36.209,25.7373 37.5,25.5C 37.9382,25.4346 38.2716,25.6012 38.5,26C 36.9586,27.3712 35.6253,28.8712 34.5,30.5C 32.2512,31.0798 30.5846,32.4131 29.5,34.5C 27.5956,34.7376 26.2623,35.7376 25.5,37.5C 23.9382,37.7329 22.6049,38.3995 21.5,39.5C 21.7031,37.9557 22.3698,36.6223 23.5,35.5C 22.675,34.6143 21.675,34.281 20.5,34.5C 20.5,33.5 20.5,32.5 20.5,31.5C 21.8847,30.6977 21.718,30.0311 20,29.5C 17.1807,29.0179 14.6807,28.0179 12.5,26.5C 17.2139,22.4542 22.2139,18.7875 27.5,15.5 Z"></path></g><g><path style="opacity:0.568" fill="#8264d2" d="M 26.5,19.5 C 28.5145,20.9238 30.8478,21.5905 33.5,21.5C 36.0417,22.6244 38.7084,23.4577 41.5,24C 42.5981,24.7697 42.5981,25.603 41.5,26.5C 39.1667,27.8333 36.8333,29.1667 34.5,30.5C 35.6253,28.8712 36.9586,27.3712 38.5,26C 38.2716,25.6012 37.9382,25.4346 37.5,25.5C 36.791,24.596 35.791,24.2627 34.5,24.5C 33.791,23.596 32.791,23.2627 31.5,23.5C 29.5939,22.5176 27.5939,21.5176 25.5,20.5C 25.6236,19.8933 25.9569,19.56 26.5,19.5 Z"></path></g><g><path style="opacity:0.657" fill="#977ddb" d="M 11.5,26.5 C 11.8333,26.5 12.1667,26.5 12.5,26.5C 14.6807,28.0179 17.1807,29.0179 20,29.5C 21.718,30.0311 21.8847,30.6977 20.5,31.5C 17.4498,29.8993 14.1165,28.8993 10.5,28.5C 10.8333,27.8333 11.1667,27.1667 11.5,26.5 Z"></path></g><g><path style="opacity:0.904" fill="#eee9fe" d="M 41.5,26.5 C 43.1585,27.1814 44.8251,28.0147 46.5,29C 35.601,38.077 24.601,46.9103 13.5,55.5C 13.1667,55.5 12.8333,55.5 12.5,55.5C 13.5758,52.3516 14.9091,49.3516 16.5,46.5C 17.1667,46.5 17.5,46.1667 17.5,45.5C 19.8605,42.4728 22.5271,39.8062 25.5,37.5C 27.4044,37.2624 28.7377,36.2624 29.5,34.5C 31.7488,33.9202 33.4154,32.5869 34.5,30.5C 36.8333,29.1667 39.1667,27.8333 41.5,26.5 Z"></path></g><g><path style="opacity:0.854" fill="#ede7fe" d="M 9.5,28.5 C 9.83333,28.5 10.1667,28.5 10.5,28.5C 14.1165,28.8993 17.4498,29.8993 20.5,31.5C 19.5,32.1667 18.5,32.8333 17.5,33.5C 14.9583,32.3756 12.2916,31.5423 9.5,31C 8.40191,30.2303 8.40191,29.397 9.5,28.5 Z"></path></g><g><path style="opacity:1" fill="#a088df" d="M 34.5,30.5 C 33.4154,32.5869 31.7488,33.9202 29.5,34.5C 30.5846,32.4131 32.2512,31.0798 34.5,30.5 Z"></path></g><g><path style="opacity:1" fill="#9f88de" d="M 29.5,34.5 C 28.7377,36.2624 27.4044,37.2624 25.5,37.5C 26.2623,35.7376 27.5956,34.7376 29.5,34.5 Z"></path></g><g><path style="opacity:0.565" fill="#7a5bd0" d="M 20.5,31.5 C 20.5,32.5 20.5,33.5 20.5,34.5C 17.9182,36.9968 16.4182,39.9968 16,43.5C 17.9917,42.3353 19.825,41.002 21.5,39.5C 22.6049,38.3995 23.9382,37.7329 25.5,37.5C 22.5271,39.8062 19.8605,42.4728 17.5,45.5C 16.8333,45.5 16.5,45.8333 16.5,46.5C 13.8996,47.9188 11.3996,49.5854 9,51.5C 8.83333,51.1667 8.66667,50.8333 8.5,50.5C 11.7801,44.9379 14.7801,39.2712 17.5,33.5C 18.5,32.8333 19.5,32.1667 20.5,31.5 Z"></path></g></svg><svg viewBox="0 0 52 56" fill="none" id="icon-fit"><path d="M4 4H52L48 48L28 56L8 48L4 4Z" fill="#F0EBFF"></path><path fill-rule="evenodd" clip-rule="evenodd" d="M1.00412 0H0L0.0909091 1L4 44L24 52L44 44L47.9091 1L48 0H46.9959H1.00412ZM1.09503 1L1.45867 5H5H5.50198H6.00396H6.9H10.7H14.5H18.3H22.1H25.9H29.7H33.5H37.3H41.1H41.996H42.498H43H46.5413L46.905 1H1.09503ZM41.9069 6H41.1H37.3H33.5H29.7H25.9H22.1H18.3H14.5H10.7H6.9H6.09307L6.19397 7.1324L5.69594 7.17678L5.19792 7.22115L5.08911 6H1.54958L4.94041 43.2991L24 50.923L43.0596 43.2991L46.4504 6H42.9109L42.8021 7.22115L42.3041 7.17678L41.806 7.1324L41.9069 6ZM6.09178 11.6191L5.59375 11.6635L5.98958 16.1058L6.48761 16.0614L6.98564 16.017L6.5898 11.5747L6.09178 11.6191ZM6.88344 20.5037L6.38542 20.5481L6.78125 24.9904L7.27928 24.946L7.7773 24.9016L7.38147 20.4593L6.88344 20.5037ZM7.67511 29.3883L7.17708 29.4327L7.57292 33.875L8.07094 33.8306L8.56897 33.7862L8.17314 29.3439L7.67511 29.3883ZM8.46678 38.2729L7.96875 38.3173L8.16667 40.5385L10.1458 41.3462L10.3348 40.8832L10.5237 40.4203L9.10864 39.8428L8.9648 38.2286L8.46678 38.2729ZM14.2931 42.4986L14.1042 42.9615L18.0625 44.5769L18.2514 44.114L18.4403 43.6511L14.482 42.0357L14.2931 42.4986ZM22.2098 45.7294L22.0208 46.1923L24 47L25.9792 46.1923L25.7902 45.7294L25.6013 45.2664L24 45.9199L22.3987 45.2664L22.2098 45.7294ZM29.7486 44.114L29.9375 44.5769L33.8958 42.9615L33.7069 42.4986L33.518 42.0357L29.5597 43.6511L29.7486 44.114ZM37.6652 40.8832L37.8542 41.3462L39.8333 40.5385L40.0313 38.3173L39.5332 38.2729L39.0352 38.2286L38.8914 39.8428L37.4763 40.4203L37.6652 40.8832ZM39.9291 33.8306L40.4271 33.875L40.8229 29.4327L40.3249 29.3883L39.8269 29.3439L39.431 33.7862L39.9291 33.8306ZM40.7207 24.946L41.2188 24.9904L41.6146 20.5481L41.1166 20.5037L40.6185 20.4593L40.2227 24.9016L40.7207 24.946ZM41.5124 16.0614L42.0104 16.1058L42.4062 11.6635L41.9082 11.6191L41.4102 11.5747L41.0144 16.017L41.5124 16.0614Z" fill="#7859CF"></path></svg><svg viewBox="0 0 52 56" fill="none" id="icon-speed"><path fill-rule="evenodd" clip-rule="evenodd" d="M24 4H32V7H29V10.0213C32.8152 10.1846 36.3896 11.2772 39.5027 13.0786C41.354 11.1476 45.7551 13.2459 44.2635 16.7365C44.2309 16.704 44.1983 16.6716 44.1656 16.6393C48.3853 20.8089 51 26.5991 51 33C51 45.7025 40.7025 56 28 56C15.2975 56 5 45.7025 5 33C5 26.3297 7.83949 20.3226 12.3757 16.1215C12.1588 16.3222 11.9457 16.5272 11.7365 16.7364C9.70719 13.7075 14.3199 10.5817 16.4975 13.0784C19.6105 11.2771 23.1849 10.1846 27 10.0213V7H24V4Z" fill="#F0EBFF"></path><path fill-rule="evenodd" clip-rule="evenodd" d="M27 1H21V2L23 2L25 2H27V1ZM25 3H27H28V2V1V0H27H21H20V1V2V3H21H23V6.02135C19.5463 6.1691 16.2898 7.07848 13.3944 8.58582L13.2544 8.42496C11.7163 6.6569 9.39521 6.98255 7.95484 8.02395C7.21517 8.55874 6.60253 9.33813 6.35204 10.2775C6.09438 11.2438 6.24251 12.3031 6.90574 13.293L7.02865 13.4765C3.28444 17.5676 1 23.017 1 29C1 41.7025 11.2975 52 24 52C36.7025 52 47 41.7025 47 29C47 23.0401 44.7331 17.6096 41.0145 13.5238L41.183 13.1295C41.6454 12.0474 41.6748 11.0021 41.3518 10.087C41.0339 9.1862 40.4018 8.48773 39.6665 8.02632C38.2591 7.14319 36.1326 6.97177 34.777 8.39054L34.5955 8.58053C31.7025 7.07636 28.4497 6.16892 25 6.02135V3ZM24 7C20.1406 7 16.5133 7.99379 13.36 9.73944L13 9.94732C11.5856 10.7639 10.2674 11.735 9.06924 12.8421C4.72198 16.8612 2 22.6127 2 29C2 41.1503 11.8497 51 24 51C36.1503 51 46 41.1503 46 29C46 22.9249 43.5376 17.4248 39.5563 13.4436C39.4319 13.3192 39.306 13.1963 39.1787 13.0749C37.9153 11.8707 36.5126 10.8207 35 9.94741L34.6357 9.7371C31.4835 7.99291 27.8577 7 24 7ZM12.4975 9.07845C11.0109 9.93867 9.62944 10.9605 8.37728 12.12C8.15986 12.3212 7.94622 12.5267 7.73652 12.7364C7.51811 12.4104 7.37664 12.0833 7.30079 11.7622C6.75443 9.44925 9.61277 7.44804 11.6466 8.42332C11.9539 8.57068 12.2424 8.78599 12.4975 9.07845ZM35.5027 9.07856C37.0672 9.98386 38.5152 11.0682 39.8186 12.3035C39.9688 12.4458 40.1171 12.5902 40.2635 12.7365C40.43 12.3468 40.523 11.9745 40.5544 11.6232C40.7632 9.28719 38.2441 7.88062 36.4507 8.48214C36.0978 8.60048 35.7731 8.79655 35.5027 9.07856ZM24 31C25.1046 31 26 30.1046 26 29C26 28.2049 25.536 27.5182 24.8641 27.1958L23.9501 27.0006C22.8686 27.0271 22 27.9121 22 29C22 30.1046 22.8954 31 24 31ZM23.3638 26.0676L22.0176 21.1316L21.9778 20.9855L22.0257 20.8419L23.5257 16.3419L24 14.9189L24.4743 16.3419L25.9743 20.8419L26.0222 20.9855L25.9824 21.1316L24.6362 26.0676C24.7657 26.0956 24.8921 26.1319 25.0148 26.176L32.5642 12.7549L33.4358 13.2451L25.8861 26.6669C26.5656 27.2169 27 28.0577 27 29C27 30.6569 25.6569 32 24 32C22.3431 32 21 30.6569 21 29C21 27.5614 22.0125 26.3594 23.3638 26.0676ZM23.0222 21.0145L24 24.5997L24.9778 21.0145L24 18.0811L23.0222 21.0145Z" fill="#7859CF"></path></svg><svg viewBox="0 0 10 6" fill="none" id="select"><path fill-rule="evenodd" clip-rule="evenodd" d="M0 1.19153L1.23899 0L5 3.61694L8.76101 0L10 1.19153L5 6L0 1.19153Z" fill="#7859CF"></path></svg><svg viewBox="0 0 62 4" fill="none" id="slider-dot"><rect width="62" height="4" fill="#7859CF"></rect></svg></svg>