<?xml version="1.0" encoding="UTF-8"?>
<!DOCTYPE svg PUBLIC "-//W3C//DTD SVG 1.1//EN" "http://www.w3.org/Graphics/SVG/1.1/DTD/svg11.dtd">
<svg xmlns="http://www.w3.org/2000/svg" version="1.1" width="52px" height="56px" style="shape-rendering:geometricPrecision; text-rendering:geometricPrecision; image-rendering:optimizeQuality; fill-rule:evenodd; clip-rule:evenodd" xmlns:xlink="http://www.w3.org/1999/xlink">
<g><path style="opacity:0.569" fill="#795acf" d="M 37.5,-0.5 C 37.8333,-0.5 38.1667,-0.5 38.5,-0.5C 37.4242,2.6484 36.0909,5.6484 34.5,8.5C 33.8333,8.5 33.5,8.83333 33.5,9.5C 31.1542,12.8708 28.8208,16.2041 26.5,19.5C 26.8333,18.1667 27.1667,16.8333 27.5,15.5C 29.5237,13.1277 30.6904,10.461 31,7.5C 23.5905,13.4542 16.0905,19.2875 8.5,25C 9.24382,26.0386 10.2438,26.5386 11.5,26.5C 11.1667,27.1667 10.8333,27.8333 10.5,28.5C 10.1667,28.5 9.83333,28.5 9.5,28.5C 7.84152,27.8186 6.17486,26.9853 4.5,26C 15.399,16.923 26.399,8.08971 37.5,-0.5 Z"/></g>
<g><path style="opacity:0.889" fill="#eee9fe" d="M 33.5,21.5 C 30.8478,21.5905 28.5145,20.9238 26.5,19.5C 28.8208,16.2041 31.1542,12.8708 33.5,9.5C 34.1667,9.5 34.5,9.16667 34.5,8.5C 37.1004,7.08122 39.6004,5.41455 42,3.5C 42.1667,3.83333 42.3333,4.16667 42.5,4.5C 39.2199,10.0621 36.2199,15.7288 33.5,21.5 Z"/></g>
<g><path style="opacity:0.947" fill="#ede8fe" d="M 27.5,15.5 C 27.1667,16.8333 26.8333,18.1667 26.5,19.5C 25.9569,19.56 25.6236,19.8933 25.5,20.5C 27.5939,21.5176 29.5939,22.5176 31.5,23.5C 32.209,24.404 33.209,24.7373 34.5,24.5C 35.209,25.404 36.209,25.7373 37.5,25.5C 37.9382,25.4346 38.2716,25.6012 38.5,26C 36.9586,27.3712 35.6253,28.8712 34.5,30.5C 32.2512,31.0798 30.5846,32.4131 29.5,34.5C 27.5956,34.7376 26.2623,35.7376 25.5,37.5C 23.9382,37.7329 22.6049,38.3995 21.5,39.5C 21.7031,37.9557 22.3698,36.6223 23.5,35.5C 22.675,34.6143 21.675,34.281 20.5,34.5C 20.5,33.5 20.5,32.5 20.5,31.5C 21.8847,30.6977 21.718,30.0311 20,29.5C 17.1807,29.0179 14.6807,28.0179 12.5,26.5C 17.2139,22.4542 22.2139,18.7875 27.5,15.5 Z"/></g>
<g><path style="opacity:0.568" fill="#8264d2" d="M 26.5,19.5 C 28.5145,20.9238 30.8478,21.5905 33.5,21.5C 36.0417,22.6244 38.7084,23.4577 41.5,24C 42.5981,24.7697 42.5981,25.603 41.5,26.5C 39.1667,27.8333 36.8333,29.1667 34.5,30.5C 35.6253,28.8712 36.9586,27.3712 38.5,26C 38.2716,25.6012 37.9382,25.4346 37.5,25.5C 36.791,24.596 35.791,24.2627 34.5,24.5C 33.791,23.596 32.791,23.2627 31.5,23.5C 29.5939,22.5176 27.5939,21.5176 25.5,20.5C 25.6236,19.8933 25.9569,19.56 26.5,19.5 Z"/></g>
<g><path style="opacity:0.657" fill="#977ddb" d="M 11.5,26.5 C 11.8333,26.5 12.1667,26.5 12.5,26.5C 14.6807,28.0179 17.1807,29.0179 20,29.5C 21.718,30.0311 21.8847,30.6977 20.5,31.5C 17.4498,29.8993 14.1165,28.8993 10.5,28.5C 10.8333,27.8333 11.1667,27.1667 11.5,26.5 Z"/></g>
<g><path style="opacity:0.904" fill="#eee9fe" d="M 41.5,26.5 C 43.1585,27.1814 44.8251,28.0147 46.5,29C 35.601,38.077 24.601,46.9103 13.5,55.5C 13.1667,55.5 12.8333,55.5 12.5,55.5C 13.5758,52.3516 14.9091,49.3516 16.5,46.5C 17.1667,46.5 17.5,46.1667 17.5,45.5C 19.8605,42.4728 22.5271,39.8062 25.5,37.5C 27.4044,37.2624 28.7377,36.2624 29.5,34.5C 31.7488,33.9202 33.4154,32.5869 34.5,30.5C 36.8333,29.1667 39.1667,27.8333 41.5,26.5 Z"/></g>
<g><path style="opacity:0.854" fill="#ede7fe" d="M 9.5,28.5 C 9.83333,28.5 10.1667,28.5 10.5,28.5C 14.1165,28.8993 17.4498,29.8993 20.5,31.5C 19.5,32.1667 18.5,32.8333 17.5,33.5C 14.9583,32.3756 12.2916,31.5423 9.5,31C 8.40191,30.2303 8.40191,29.397 9.5,28.5 Z"/></g>
<g><path style="opacity:1" fill="#a088df" d="M 34.5,30.5 C 33.4154,32.5869 31.7488,33.9202 29.5,34.5C 30.5846,32.4131 32.2512,31.0798 34.5,30.5 Z"/></g>
<g><path style="opacity:1" fill="#9f88de" d="M 29.5,34.5 C 28.7377,36.2624 27.4044,37.2624 25.5,37.5C 26.2623,35.7376 27.5956,34.7376 29.5,34.5 Z"/></g>
<g><path style="opacity:0.565" fill="#7a5bd0" d="M 20.5,31.5 C 20.5,32.5 20.5,33.5 20.5,34.5C 17.9182,36.9968 16.4182,39.9968 16,43.5C 17.9917,42.3353 19.825,41.002 21.5,39.5C 22.6049,38.3995 23.9382,37.7329 25.5,37.5C 22.5271,39.8062 19.8605,42.4728 17.5,45.5C 16.8333,45.5 16.5,45.8333 16.5,46.5C 13.8996,47.9188 11.3996,49.5854 9,51.5C 8.83333,51.1667 8.66667,50.8333 8.5,50.5C 11.7801,44.9379 14.7801,39.2712 17.5,33.5C 18.5,32.8333 19.5,32.1667 20.5,31.5 Z"/></g>
</svg>
